<?xml version="1.0" encoding="utf-8"?><svg xmlns="http://www.w3.org/2000/svg" xmlns:xlink="http://www.w3.org/1999/xlink"><symbol viewBox="0 0 14 8" id="arrow" xmlns="http://www.w3.org/2000/svg"><path d="M12.935.987a.299.299 0 00-.007-.412.277.277 0 00-.393 0L6.51 6.79.486.574a.277.277 0 00-.4-.007.299.299 0 000 .42L6.31 7.409c.11.114.29.114.4 0L12.935.987z"/><path d="M.003.78c0-.16.126-.29.282-.291.075 0 .148.03.2.086L6.51 6.79 12.534.574a.277.277 0 01.4 0c.111.114.111.3 0 .413L6.71 7.41a.277.277 0 01-.4 0L.086.987A.297.297 0 01.003.781z"/></symbol><symbol viewBox="0 0 37 24" id="burger" xmlns="http://www.w3.org/2000/svg"><path d="M0 1h37M0 12h37M0 23h37"/></symbol><symbol viewBox="0 0 17 17" id="calendar" xmlns="http://www.w3.org/2000/svg"><path d="M13.718 1.306h-.634V.664a.664.664 0 10-1.328 0v.642H5.244V.664a.664.664 0 10-1.328 0v.642h-.634A3.287 3.287 0 000 4.59v9.126A3.287 3.287 0 003.282 17h10.436A3.287 3.287 0 0017 13.716V4.59a3.287 3.287 0 00-3.282-3.284zM3.282 2.634h.634V3.93a.664.664 0 101.328 0V2.634h6.512V3.93a.664.664 0 101.328 0V2.634h.634c1.078 0 1.954.877 1.954 1.956v.634H1.329V4.59c0-1.079.876-1.956 1.954-1.956zm10.436 13.038H3.282a1.957 1.957 0 01-1.954-1.956V6.552h14.345v7.164a1.957 1.957 0 01-1.955 1.956zM5.896 9.164a.664.664 0 01-.663.664H3.927a.664.664 0 010-1.328h1.306c.366 0 .663.297.663.664zm7.84 0a.664.664 0 01-.663.664h-1.306a.664.664 0 010-1.328h1.306c.366 0 .663.297.663.664zm-3.923 0a.664.664 0 01-.664.664H7.844a.664.664 0 010-1.328h1.305c.367 0 .664.297.664.664zm-3.917 3.918a.664.664 0 01-.663.664H3.927a.664.664 0 010-1.328h1.306c.366 0 .663.297.663.664zm7.84 0a.664.664 0 01-.663.664h-1.306a.664.664 0 010-1.328h1.306c.366 0 .663.297.663.664zm-3.923 0a.664.664 0 01-.664.664H7.844a.664.664 0 010-1.328h1.305c.367 0 .664.297.664.664z"/></symbol><symbol viewBox="0 0 9 18" id="dollar" xmlns="http://www.w3.org/2000/svg"><path d="M8.25 6.923c.199 0 .39-.073.53-.203S9 6.414 9 6.23v-.57c-.002-.928-.395-1.818-1.094-2.484A4.033 4.033 0 005.25 2.089V.692a.666.666 0 00-.22-.49A.783.783 0 004.5 0a.783.783 0 00-.53.203.666.666 0 00-.22.49v1.396a4.06 4.06 0 00-2.415.873A3.519 3.519 0 00.058 5.045a3.34 3.34 0 00.433 2.36 3.794 3.794 0 001.948 1.58L6.004 10.3c.513.19.94.539 1.204.987.265.448.353.967.249 1.469a2.172 2.172 0 01-.822 1.278 2.505 2.505 0 01-1.515.504H3.88a2.487 2.487 0 01-1.682-.645A2.118 2.118 0 011.5 12.34v-.572a.666.666 0 00-.22-.49.783.783 0 00-.53-.202.783.783 0 00-.53.203.666.666 0 00-.22.49v.571c.002.928.395 1.818 1.094 2.484A4.033 4.033 0 003.75 15.91v1.397c0 .183.08.36.22.49S4.3 18 4.5 18s.39-.073.53-.203a.666.666 0 00.22-.49v-1.396a4.06 4.06 0 002.415-.873 3.519 3.519 0 001.277-2.083 3.34 3.34 0 00-.433-2.36 3.794 3.794 0 00-1.948-1.58L2.996 7.7a2.329 2.329 0 01-1.204-.987 2.05 2.05 0 01-.249-1.469c.105-.501.395-.953.822-1.278a2.504 2.504 0 011.515-.503h1.24c.63 0 1.236.232 1.682.644.446.412.697.97.698 1.553v.572c0 .183.079.36.22.49.14.13.33.202.53.202z"/></symbol><symbol viewBox="0 0 12 22" id="facebook" xmlns="http://www.w3.org/2000/svg"><path d="M10.6.004L7.959 0C4.99 0 3.072 2.031 3.072 5.175v2.386H.415a.422.422 0 00-.415.43v3.457c0 .237.186.429.415.429h2.657V20.6c0 .237.186.43.415.43h3.466c.23 0 .416-.193.416-.43v-8.723h3.106c.23 0 .415-.192.415-.43l.002-3.457a.437.437 0 00-.122-.303.409.409 0 00-.294-.126H7.369V5.54c0-.973.224-1.466 1.451-1.466h1.78c.23 0 .415-.193.415-.43V.433A.422.422 0 0010.6.004z"/></symbol><symbol viewBox="0 0 22 22" id="instagram" xmlns="http://www.w3.org/2000/svg"><path d="M16.628 3.891a.511.511 0 100 1.023.511.511 0 000-1.023zm-6.113 2.098a4.531 4.531 0 00-4.526 4.526 4.531 4.531 0 004.526 4.526 4.531 4.531 0 004.526-4.526 4.531 4.531 0 00-4.526-4.526z"/><path d="M15.264 0h-9.5A5.771 5.771 0 000 5.765v9.5a5.771 5.771 0 005.765 5.764h9.5a5.771 5.771 0 005.764-5.765v-9.5A5.771 5.771 0 0015.264 0zm-4.75 16.282a5.774 5.774 0 01-5.767-5.767 5.774 5.774 0 015.768-5.768 5.774 5.774 0 015.767 5.768 5.774 5.774 0 01-5.767 5.767zm6.114-10.128a1.754 1.754 0 01-1.753-1.752c0-.967.786-1.753 1.753-1.753.966 0 1.752.786 1.752 1.753 0 .966-.786 1.752-1.752 1.752z"/></symbol><symbol viewBox="0 0 29 12" id="long-arrow" xmlns="http://www.w3.org/2000/svg"><path d="M28.294 5.609L21.69 1.015a.585.585 0 00-.826 0 .58.58 0 000 .824l5.607 3.599H.584a.583.583 0 100 1.165h25.887l-5.607 3.599a.58.58 0 00.413.994c.15 0 .299-.057.413-.17l6.604-4.594a.58.58 0 000-.823z"/></symbol><symbol viewBox="0 0 17 13" id="mail" xmlns="http://www.w3.org/2000/svg"><path opacity=".7" d="M16.128.5H.872C.392.5 0 .915 0 1.423v10.154c0 .508.392.923.872.923h15.256c.48 0 .872-.415.872-.923V1.423C17 .915 16.608.5 16.128.5zm-.327.692l-6.8 5.4a.817.817 0 01-.501.16.817.817 0 01-.502-.16l-6.8-5.4h14.603zM12.169 6.95l3.705 4.846.012.013H1.114l.012-.013L4.83 6.949a.36.36 0 00-.049-.487.315.315 0 00-.46.05l-3.668 4.8V1.625l6.952 5.521c.262.206.58.297.894.298.314 0 .632-.092.893-.298l6.953-5.521v9.687l-3.669-4.8a.315.315 0 00-.46-.05.36.36 0 00-.048.487z"/></symbol><symbol viewBox="0 0 18 18" id="marker" xmlns="http://www.w3.org/2000/svg"><path d="M2.647 15.353A8.953 8.953 0 009 17.985a8.954 8.954 0 006.353-2.632A8.955 8.955 0 0017.985 9a8.955 8.955 0 00-2.632-6.353A8.953 8.953 0 009 .015a8.953 8.953 0 00-6.353 2.632A8.953 8.953 0 00.015 9a8.955 8.955 0 002.632 6.353zM9 1.327a7.673 7.673 0 110 15.346A7.673 7.673 0 019 1.327z"/><path d="M9 18a8.968 8.968 0 01-6.364-2.636A8.97 8.97 0 010 9a8.969 8.969 0 012.636-6.364A8.968 8.968 0 019 0a8.969 8.969 0 016.364 2.636A8.968 8.968 0 0118 9a8.968 8.968 0 01-2.636 6.364A8.97 8.97 0 019 18zM9 .03a8.938 8.938 0 00-6.342 2.627A8.938 8.938 0 00.03 9a8.937 8.937 0 002.627 6.342A8.937 8.937 0 009 17.97a8.938 8.938 0 006.342-2.627A8.936 8.936 0 0017.97 9a8.936 8.936 0 00-2.627-6.342A8.94 8.94 0 009 .03zm0 16.658c-2.054 0-3.984-.8-5.437-2.251A7.638 7.638 0 011.312 9c0-2.054.8-3.984 2.252-5.436A7.638 7.638 0 019 1.312c2.054 0 3.984.8 5.437 2.252A7.638 7.638 0 0116.688 9c0 2.054-.8 3.984-2.251 5.437A7.638 7.638 0 019 16.688zM9 1.342a7.608 7.608 0 00-5.415 2.243A7.608 7.608 0 001.342 9c0 2.046.797 3.969 2.243 5.415A7.607 7.607 0 009 16.658a7.607 7.607 0 005.415-2.243A7.607 7.607 0 0016.658 9a7.607 7.607 0 00-2.243-5.415A7.607 7.607 0 009 1.342z"/><path d="M7.011 12.271a.656.656 0 00.927 0l5.615-5.615a.656.656 0 10-.927-.927l-5.151 5.15-2.1-2.1a.656.656 0 10-.928.928L7.01 12.27z"/><path d="M7.475 12.479A.667.667 0 017 12.282L4.436 9.718a.672.672 0 01.95-.95l2.089 2.09 5.14-5.14a.667.667 0 01.474-.196.667.667 0 01.671.671c0 .179-.07.347-.196.474l-5.615 5.615a.666.666 0 01-.474.197zM4.91 8.603a.641.641 0 00-.453 1.093l2.564 2.564a.636.636 0 00.906 0l5.614-5.614a.637.637 0 000-.906.636.636 0 00-.905 0l-5.162 5.162L5.363 8.79a.636.636 0 00-.452-.187z"/></symbol><symbol viewBox="0 0 14 2" id="math-m" xmlns="http://www.w3.org/2000/svg"><path d="M0 0h14v2H0V0z"/></symbol><symbol viewBox="0 0 14 14" id="math-p" xmlns="http://www.w3.org/2000/svg"><path d="M8 0v14H6V0h2z"/><path d="M0 6h14v2H0V6z"/></symbol><symbol viewBox="0 0 16 15" id="messege" xmlns="http://www.w3.org/2000/svg"><g opacity=".7"><path d="M3.733 14.5a.57.57 0 01-.231-.05A.499.499 0 013.2 14v-2.5H1.6C.718 11.5 0 10.827 0 10V2C0 1.173.718.5 1.6.5h12.8c.882 0 1.6.673 1.6 1.5v8c0 .827-.718 1.5-1.6 1.5H7.92l-3.853 2.89a.555.555 0 01-.334.11zM1.6 1.5c-.294 0-.533.224-.533.5v8c0 .275.239.5.533.5h2.133c.295 0 .534.223.534.5v1.96L7.4 10.61a.556.556 0 01.333-.11H14.4c.294 0 .533-.225.533-.5V2c0-.276-.239-.5-.533-.5H1.6z"/><path d="M12.267 5.5H3.733c-.295 0-.533-.224-.533-.5s.238-.5.533-.5h8.534c.295 0 .533.224.533.5s-.238.5-.533.5zM8 7.5H3.733c-.295 0-.533-.224-.533-.5s.238-.5.533-.5H8c.295 0 .533.224.533.5s-.238.5-.533.5z"/></g></symbol><symbol viewBox="0 0 15 15" id="percent" xmlns="http://www.w3.org/2000/svg"><path d="M14.793.206a.703.703 0 00-.995 0L.21 13.798a.704.704 0 00.996.996L14.793 1.202a.704.704 0 000-.996zM3.344.005A3.349 3.349 0 000 3.35c0 1.845 1.5 3.345 3.344 3.345 1.844 0 3.344-1.5 3.344-3.345 0-1.844-1.5-3.345-3.344-3.345zm0 5.282A1.939 1.939 0 011.408 3.35a1.94 1.94 0 011.936-1.937A1.94 1.94 0 015.28 3.35a1.939 1.939 0 01-1.936 1.937zm8.312 3.022a3.349 3.349 0 00-3.344 3.345c0 1.845 1.5 3.345 3.344 3.345A3.347 3.347 0 0015 11.654c0-1.845-1.5-3.345-3.344-3.345zm0 5.282a1.939 1.939 0 01-1.936-1.937c0-1.068.868-1.937 1.936-1.937a1.94 1.94 0 011.936 1.937 1.939 1.939 0 01-1.936 1.937z"/></symbol><symbol viewBox="0 0 15 16" id="person" xmlns="http://www.w3.org/2000/svg"><path d="M7.387 7.707c1.19 0 2.22-.38 3.061-1.129.842-.749 1.269-1.666 1.269-2.724 0-1.06-.427-1.976-1.269-2.725C9.606.379 8.576 0 7.387 0c-1.19 0-2.22.38-3.062 1.129-.842.749-1.269 1.666-1.269 2.725 0 1.058.427 1.975 1.269 2.724.842.75 1.872 1.13 3.062 1.13zM5.07 1.792c.646-.575 1.404-.854 2.317-.854.912 0 1.67.279 2.316.854.646.575.96 1.25.96 2.062 0 .812-.314 1.486-.96 2.061-.646.575-1.404.855-2.316.855-.913 0-1.67-.28-2.317-.855-.646-.575-.96-1.249-.96-2.061 0-.813.314-1.487.96-2.062zm9.894 10.511a8.51 8.51 0 00-.146-1.01 7.262 7.262 0 00-.28-1.017 4.761 4.761 0 00-.47-.948 3.658 3.658 0 00-.707-.821 3.198 3.198 0 00-1.017-.57 3.904 3.904 0 00-1.299-.208c-.183 0-.36.067-.703.265a98.11 98.11 0 01-.734.421 4.477 4.477 0 01-.948.372c-.385.11-.775.167-1.16.167-.386 0-.776-.056-1.16-.167a4.462 4.462 0 01-.949-.372c-.273-.155-.52-.297-.734-.42-.342-.2-.52-.266-.703-.266-.468 0-.904.07-1.299.209-.395.14-.737.33-1.017.569a3.659 3.659 0 00-.708.82 4.768 4.768 0 00-.47.949 7.266 7.266 0 00-.278 1.016 8.47 8.47 0 00-.146 1.012 12.19 12.19 0 00-.036.944c0 .836.298 1.512.887 2.01.58.493 1.35.742 2.284.742h8.657c.935 0 1.704-.25 2.285-.742.589-.498.887-1.174.887-2.01 0-.322-.012-.64-.036-.945zm-1.577 2.276c-.384.325-.894.483-1.559.483H3.171c-.664 0-1.174-.158-1.558-.483-.376-.319-.56-.754-.56-1.33 0-.3.012-.596.034-.88a7.609 7.609 0 01.377-1.807 3.88 3.88 0 01.382-.771 2.71 2.71 0 01.52-.607c.181-.154.41-.28.677-.374a2.69 2.69 0 01.83-.143c.037.018.103.051.21.113.216.125.465.269.741.426.311.176.712.335 1.191.473.49.141.989.212 1.485.212a5.37 5.37 0 001.484-.212 5.56 5.56 0 001.191-.474c.283-.16.525-.3.742-.425.107-.062.172-.095.21-.113.302.007.58.055.83.143.267.094.495.22.676.374.193.165.368.369.52.607.16.25.288.509.382.77.098.274.181.576.246.897.066.326.11.632.132.91.022.284.033.58.033.88 0 .577-.183 1.012-.56 1.331z" opacity=".7"/></symbol><symbol viewBox="0 0 16 16" id="phone" xmlns="http://www.w3.org/2000/svg"><path opacity=".7" d="M13.127 16c1.524 0 2.552-1.072 2.855-2.946a1.824 1.824 0 00-.365-1.374l-.058-.055-2.213-1.75a1.823 1.823 0 00-2.294.088l-.955.904c-1.991-.452-4.85-3.033-4.992-4.936l.944-.995a1.823 1.823 0 00.07-2.286L4.376.444A.266.266 0 004.31.382 1.823 1.823 0 002.939.018C1.072.324 0 1.352 0 2.876A13.123 13.123 0 0013.127 16zM3.056.743c.052-.003.104-.003.156 0 .225.001.444.071.628.2l1.702 2.152A1.093 1.093 0 015.51 4.45L4.474 5.544a.365.365 0 00-.098.248c0 2.348 3.387 5.432 5.775 5.833a.363.363 0 00.31-.095l1.094-1.024a1.094 1.094 0 011.36-.047l2.17 1.706c.163.226.231.508.19.784-.18 1.057-.69 2.322-2.148 2.322A12.399 12.399 0 01.729 2.876C.73 1.418 1.995.907 3.056.743z"/></symbol><symbol viewBox="0 0 20 20" id="plus" xmlns="http://www.w3.org/2000/svg"><path d="M19.219 9.219H10.78V.78a.781.781 0 10-1.562 0v8.44H.78a.781.781 0 100 1.562h8.44v8.438a.781.781 0 001.562 0v-8.44h8.438a.781.781 0 100-1.562z"/></symbol><symbol viewBox="0 0 19 19" id="search" xmlns="http://www.w3.org/2000/svg"><path d="M18.794 17.799l-5.108-5.109a7.704 7.704 0 001.795-4.95c0-4.268-3.472-7.74-7.74-7.74C3.472 0 0 3.472 0 7.74c0 4.269 3.472 7.741 7.74 7.741a7.704 7.704 0 004.95-1.796l5.109 5.109a.702.702 0 00.995 0 .704.704 0 000-.995zM1.407 7.74a6.34 6.34 0 016.334-6.334 6.34 6.34 0 016.333 6.334 6.34 6.34 0 01-6.333 6.333A6.34 6.34 0 011.407 7.74z"/></symbol><symbol viewBox="0 0 19 19" id="sign" xmlns="http://www.w3.org/2000/svg"><path d="M12.71 13.828v1.408a2.82 2.82 0 01-2.817 2.816H2.817A2.82 2.82 0 010 15.236V2.844A2.82 2.82 0 012.817.027h7.076a2.82 2.82 0 012.817 2.817v1.408a.704.704 0 11-1.409 0V2.844a1.41 1.41 0 00-1.408-1.408H2.817a1.41 1.41 0 00-1.409 1.408v12.392a1.41 1.41 0 001.409 1.408h7.076a1.41 1.41 0 001.408-1.408v-1.408a.704.704 0 111.409 0zm4.8-5.998l-1.577-1.576a.704.704 0 00-.995.995l1.121 1.122H7.605a.704.704 0 100 1.408h8.454l-1.121 1.122a.704.704 0 10.995.995l1.577-1.576a1.762 1.762 0 000-2.49z"/></symbol><symbol viewBox="0 0 16 8" id="slide" xmlns="http://www.w3.org/2000/svg"><path d="M15.354 3.646a.5.5 0 010 .708l-3.182 3.182a.5.5 0 11-.708-.708L14.293 4l-2.829-2.828a.5.5 0 11.708-.708l3.182 3.182zM0 3.5h15v1H0v-1z"/></symbol><symbol viewBox="0 0 18 18" id="star" xmlns="http://www.w3.org/2000/svg"><path d="M17.809 7.49l-3.945 4.034.932 5.7a.68.68 0 01-.252.65.611.611 0 01-.667.05L9 15.233l-4.876 2.69a.606.606 0 01-.667-.05.68.68 0 01-.252-.65l.931-5.7L.191 7.49a.688.688 0 01-.16-.68.645.645 0 01.512-.453l5.451-.831L8.432.34c.213-.453.923-.453 1.136 0l2.438 5.185 5.451.83a.644.644 0 01.512.453.688.688 0 01-.16.681z"/></symbol><symbol viewBox="0 0 25 21" id="twitter" xmlns="http://www.w3.org/2000/svg"><path d="M25 2.486c-.93.422-1.92.701-2.953.837A5.242 5.242 0 0024.302.394a10.072 10.072 0 01-3.25 1.283A5.06 5.06 0 0017.308 0c-2.838 0-5.122 2.381-5.122 5.3 0 .42.034.824.119 1.208C8.044 6.294 4.273 4.182 1.74.966a5.473 5.473 0 00-.702 2.678c0 1.835.914 3.462 2.277 4.404A4.935 4.935 0 011 7.395v.058c0 2.575 1.777 4.714 4.106 5.207a4.958 4.958 0 01-1.343.174c-.329 0-.66-.02-.97-.09.663 2.098 2.548 3.64 4.788 3.69a10.086 10.086 0 01-6.354 2.26c-.42 0-.824-.018-1.227-.072A14.088 14.088 0 007.862 21c9.432 0 14.588-8.077 14.588-15.078 0-.234-.008-.46-.019-.685A10.423 10.423 0 0025 2.487z"/></symbol><symbol viewBox="0 0 25 18" id="yt" xmlns="http://www.w3.org/2000/svg"><path d="M24.651 2.946C24.521 1.833 23.49.766 22.41.623a79.058 79.058 0 00-19.817 0C1.512.766.48 1.833.349 2.946a52.76 52.76 0 000 12.108c.13 1.113 1.162 2.18 2.243 2.323a79.06 79.06 0 0019.817 0c1.08-.142 2.111-1.21 2.242-2.323a52.72 52.72 0 000-12.108zm-14.235 10.29v-8.47L16.666 9l-6.25 4.235z"/></symbol></svg>